Coordinates
version=1
nRows=15
nColumns=46
inDegrees=yes

Units are S.I. units (second, meters, Newtons, ...)
Angles are in degrees.

endheader
time	pelvis_tilt	pelvis_list	pelvis_rotation	pelvis_tx	pelvis_ty	pelvis_tz	bb_angle	bb_tx	bb_ty	bb_tz	hip_flexion_r	hip_adduction_r	hip_rotation_r	knee_angle_r	knee_angle_r_beta	ankle_angle_r	subtalar_angle_r	mtp_angle_r	crank_angle_r	hip_flexion_l	hip_adduction_l	hip_rotation_l	knee_angle_l	knee_angle_l_beta	ankle_angle_l	subtalar_angle_l	mtp_angle_l	crank_angle_l	lumbar_extension	lumbar_bending	lumbar_rotation	arm_flex_r	arm_add_r	arm_rot_r	elbow_flex_r	pro_sup_r	wrist_flex_r	wrist_dev_r	arm_flex_l	arm_add_l	arm_rot_l	elbow_flex_l	pro_sup_l	wrist_flex_l	wrist_dev_l
      2.50500000	    -19.45581670	      4.91098377	      3.85879358	      0.09496189	      1.15181581	     -0.19873404	      0.00000000	      0.50000000	      0.00000000	      0.25000000	     67.96404953	     -9.70848066	      1.15739760	     80.53765887	      1.40564732	    -13.67432919	    -12.97454664	      0.00000000	      0.00000000	     78.00176507	     -3.87852778	     -3.31958620	     70.18527324	      1.22496410	     26.66301882	      5.03032842	      0.00000000	      0.00000000	    -55.99065161	     -8.93496187	     -2.79897373	     89.38759105	    -31.35071071	     38.65040019	     53.97799142	     38.49072508	      0.00000000	      0.00000000	     89.78730424	     -3.03349282	     31.55444578	     53.26165302	     31.71200538	      0.00000000	      0.00000000
      2.51000000	    -19.51517789	      4.89799371	      3.69388495	      0.09591943	      1.15172882	     -0.19920776	      0.00000000	      0.50000000	      0.00000000	      0.25000000	     68.47182973	     -9.84056365	      1.08144683	     81.57331854	      1.42372299	    -13.14366517	    -12.86718258	      0.00000000	      0.00000000	     77.30775606	     -3.78012896	     -3.21182673	     68.94294956	      1.20328147	     26.36323121	      5.03989890	      0.00000000	      0.00000000	    -56.05506196	     -9.01365490	     -2.62781750	     89.31540216	    -31.52514398	     37.74407460	     54.50669077	     38.78181847	      0.00000000	      0.00000000	     89.78095755	     -3.13904817	     31.45259570	     53.67128724	     32.25172782	      0.00000000	      0.00000000
      2.51500000	    -19.53739451	      4.62013223	      3.61471625	      0.09687215	      1.15162626	     -0.19942136	      0.00000000	      0.50000000	      0.00000000	      0.25000000	     68.82690368	     -9.79065770	      0.79580978	     82.57912300	      1.44127759	    -12.49679959	    -12.88029517	      0.00000000	      0.00000000	     76.64906207	     -3.74154540	     -2.84345402	     67.74750752	      1.18241707	     25.91558031	      5.04444702	      0.00000000	      0.00000000	    -55.98207296	     -8.84184153	     -2.09691241	     89.25407104	    -31.79687935	     37.05195673	     54.67234293	     39.51496708	      0.00000000	      0.00000000	     89.78589133	     -3.01876052	     31.97383967	     53.04338085	     33.71098300	      0.00000000	      0.00000000
      2.52000000	    -19.71031360	      4.45306255	      3.17128219	      0.09785086	      1.15113348	     -0.19983574	      0.00000000	      0.50000000	      0.00000000	      0.25000000	     69.41478039	     -9.51455245	      0.79548635	     83.59319395	      1.45897647	    -11.64045273	    -12.24554828	      0.00000000	      0.00000000	     76.12988409	     -3.99281349	     -2.72845648	     66.65579651	      1.16336311	     25.60950466	      4.74175580	      0.00000000	      0.00000000	    -55.66041369	     -8.98036699	     -1.80609849	     89.32911932	    -31.92036611	     38.28233177	     54.26214607	     39.66390760	      0.00000000	      0.00000000	     89.77914311	     -3.44097165	     32.34597300	     53.04229323	     33.66986039	      0.00000000	      0.00000000
      2.52500000	    -19.87573649	      4.30089185	      3.01326358	      0.09874729	      1.15078490	     -0.20052124	      0.00000000	      0.50000000	      0.00000000	      0.25000000	     69.99365959	     -9.51990827	      0.70824132	     84.63389913	      1.47714020	    -10.51333439	    -11.84306178	      0.00000000	      0.00000000	     75.57071983	     -3.92743601	     -2.50848889	     65.46199449	      1.14252734	     25.10920533	      4.44773232	      0.00000000	      0.00000000	    -55.48779760	     -8.89948108	     -1.58101281	     89.35327742	    -32.65910591	     39.92892014	     55.81193210	     35.28273294	      0.00000000	      0.00000000	     89.76847022	     -3.87965801	     33.42747940	     55.74219703	     21.08349478	      0.00000000	      0.00000000
      2.53000000	    -20.00820197	      4.10408209	      2.87290857	      0.09961942	      1.15054340	     -0.20076799	      0.00000000	      0.50000000	      0.00000000	      0.25000000	     70.53009470	     -9.45263833	      0.56121182	     85.63687630	      1.49464545	    -10.02179827	    -11.67557727	      0.00000000	      0.00000000	     74.98064238	     -3.97838680	     -2.35022336	     64.26919373	      1.12170904	     24.58440464	      4.33927672	      0.00000000	      0.00000000	    -55.30155675	     -8.81832667	     -1.21662022	     89.32544286	    -32.82123281	     39.74616472	     55.74876717	     36.07648885	      0.00000000	      0.00000000	     89.76661538	     -4.03348817	     33.88662014	     55.30028673	     23.42188331	      0.00000000	      0.00000000
      2.53500000	    -20.11494926	      3.91701108	      2.69505086	      0.10058772	      1.15024122	     -0.20124968	      0.00000000	      0.50000000	      0.00000000	      0.25000000	     71.07360877	     -9.40858324	      0.46029461	     86.66483710	      1.51258675	     -9.01367248	    -11.32893760	      0.00000000	      0.00000000	     74.35225395	     -3.99365127	     -2.13834087	     63.10403292	      1.10137315	     24.12236610	      4.13161983	      0.00000000	      0.00000000	    -55.12276908	     -8.71967024	     -0.91574407	     89.32323432	    -32.95102026	     39.90210757	     55.73286582	     36.82130729	      0.00000000	      0.00000000	     89.76185998	     -4.30517748	     34.13017867	     54.98927292	     25.38964705	      0.00000000	      0.00000000
      2.54000000	    -20.24256488	      3.72012449	      2.50364449	      0.10144844	      1.14998968	     -0.20184076	      0.00000000	      0.50000000	      0.00000000	      0.25000000	     71.61246628	     -9.31489464	      0.38318033	     87.64136499	      1.52963038	     -8.23866650	    -11.04081587	      0.00000000	      0.00000000	     73.72634725	     -4.00320556	     -1.91269581	     61.90743991	      1.08048866	     23.56878166	      3.83912293	      0.00000000	      0.00000000	    -54.94142717	     -8.60398435	     -0.65569134	     89.33121355	    -33.11360565	     40.30503077	     55.85011857	     37.43369954	      0.00000000	      0.00000000	     89.75482812	     -4.61039821	     34.24271232	     54.88032802	     26.90864956	      0.00000000	      0.00000000
      2.54500000	    -20.27834069	      3.46044102	      2.31984607	      0.10233348	      1.15007853	     -0.20244479	      0.00000000	      0.50000000	      0.00000000	      0.25000000	     72.04894789	     -9.22450394	      0.22564885	     88.58555403	      1.54610959	     -7.48410430	    -10.71436873	      0.00000000	      0.00000000	     72.98279728	     -3.99798633	     -1.58729122	     60.68965415	      1.05923429	     22.99410140	      3.54330003	      0.00000000	      0.00000000	    -54.85621250	     -8.42216864	     -0.24093536	     89.31263264	    -33.24966361	     40.22320260	     55.93282636	     37.83293867	      0.00000000	      0.00000000	     89.75265725	     -4.77556805	     34.48142137	     54.61484039	     27.83075429	      0.00000000	      0.00000000
      2.55000000	    -20.42392599	      3.26321634	      2.12748195	      0.10322372	      1.14983690	     -0.20318414	      0.00000000	      0.50000000	      0.00000000	      0.25000000	     72.64306937	     -9.16449160	      0.18278794	     89.54847106	      1.56291566	     -6.71521852	    -10.29405498	      0.00000000	      0.00000000	     72.35522742	     -4.03815066	     -1.43044418	     59.48827252	      1.03826622	     22.48756499	      3.12743903	      0.00000000	      0.00000000	    -54.62138851	     -8.31881115	      0.04306196	     89.29015632	    -33.32487395	     40.39836718	     55.94997829	     38.07289420	      0.00000000	      0.00000000	     89.74692227	     -4.95926676	     34.75651807	     54.43803388	     28.42627020	      0.00000000	      0.00000000
      2.55500000	    -20.48976767	      2.93640821	      1.95637486	      0.10414759	      1.14954772	     -0.20308799	      0.00000000	      0.50000000	      0.00000000	      0.25000000	     73.17129305	     -8.93396596	     -0.00713719	     90.55790115	      1.58053354	     -6.30434291	    -10.33433458	      0.00000000	      0.00000000	     71.71378009	     -4.20967003	     -1.14431535	     58.39724061	      1.01922412	     22.02151557	      3.14168771	      0.00000000	      0.00000000	    -54.46691896	     -8.13590880	      0.41265653	     89.28824449	    -33.25078340	     40.47718333	     55.98447396	     38.07399353	      0.00000000	      0.00000000	     89.73891630	     -5.10090000	     34.69636815	     54.47180621	     28.39953966	      0.00000000	      0.00000000
      2.56000000	    -20.63062863	      2.63424425	      1.72706992	      0.10513504	      1.14952511	     -0.20373514	      0.00000000	      0.50000000	      0.00000000	      0.25000000	     73.71551980	     -8.76340663	     -0.15462995	     91.43443983	      1.59583202	     -5.56467800	    -10.10040976	      0.00000000	      0.00000000	     71.04274115	     -4.31268860	     -0.89078800	     57.13551417	      0.99720284	     21.30606729	      2.88950531	      0.00000000	      0.00000000	    -54.26413584	     -7.96276193	      0.72358682	     89.29843624	    -33.24241909	     40.60803255	     56.01967550	     38.07213563	      0.00000000	      0.00000000	     89.73190536	     -5.27747650	     34.72531215	     54.47435815	     28.35340763	      0.00000000	      0.00000000
      2.56500000	    -20.65483393	      2.54283935	      1.66260460	      0.10610820	      1.14943469	     -0.20491694	      0.00000000	      0.50000000	      0.00000000	      0.25000000	     74.25716199	     -8.97540947	     -0.08664616	     92.50059222	      1.61443989	     -4.40939987	     -8.79644882	      0.00000000	      0.00000000	     70.24185175	     -4.03990806	     -0.63913673	     55.89545975	      0.97555981	     20.33665344	      1.67122910	      0.00000000	      0.00000000	    -54.17332923	     -7.80080952	      0.78135907	     89.29054419	    -33.38316816	     41.05600634	     56.10338682	     38.05065763	      0.00000000	      0.00000000	     89.72779844	     -5.52799001	     35.19491596	     54.40599906	     28.18846392	      0.00000000	      0.00000000
      2.57000000	    -20.73480054	      2.28017147	      1.40429456	      0.10716545	      1.14934242	     -0.20560158	      0.00000000	      0.50000000	      0.00000000	      0.25000000	     74.81446188	     -8.83417704	     -0.15710024	     93.46340003	      1.63124406	     -3.59465864	     -8.20735018	      0.00000000	      0.00000000	     69.52933525	     -4.15107386	     -0.40281238	     54.74220362	      0.95543169	     19.61812036	      1.20962874	      0.00000000	      0.00000000	    -53.99127575	     -7.64184770	      1.11986103	     89.28733497	    -33.39575462	     41.39696885	     56.17561229	     38.02254217	      0.00000000	      0.00000000	     89.72043301	     -5.78453157	     35.50051350	     54.34976524	     28.04015400	      0.00000000	      0.00000000
      2.57500000	    -20.83382329	      1.93768619	      1.10704780	      0.10825911	      1.14915611	     -0.20603448	      0.00000000	      0.50000000	      0.00000000	      0.25000000	     75.38132799	     -8.54895591	     -0.28839852	     94.38168543	      1.64727116	     -3.11595243	     -8.12621628	      0.00000000	      0.00000000	     68.86070692	     -4.39794142	     -0.13202955	     53.65833365	      0.93651459	     19.14264835	      1.17740671	      0.00000000	      0.00000000	    -53.78889246	     -7.44436714	      1.56612416	     89.28116832	    -33.30378126	     41.48898504	     56.21515089	     38.02256206	      0.00000000	      0.00000000	     89.70888310	     -5.95606736	     35.50552205	     54.32511124	     28.00562576	      0.00000000	      0.00000000
